HIERARCHY
ROOT Hips
{
  OFFSET 0.000000 0.000000 0.000000
  CHANNELS 6 Xposition Yposition Zposition Xrotation Yrotation Zrotation
  JOINT Spine
  {
    OFFSET 0.211591 24.227834 -3.764787
    CHANNELS 3 Xrotation Yrotation Zrotation
    JOINT Chest
    {
      OFFSET 0.211591 24.227834 -3.764787
      CHANNELS 3 Xrotation Yrotation Zrotation
      JOINT Neck
      {
        OFFSET -1.100772 8.441563 -3.430650
        CHANNELS 3 Xrotation Yrotation Zrotation
        JOINT Head
        {
          OFFSET -1.192129 7.757112 -7.601908
          CHANNELS 3 Xrotation Yrotation Zrotation
          End Site
          {
            OFFSET -0.357639 2.327134 -2.280572
          }
        }
      }
      JOINT LeftShoulder
      {
        OFFSET 17.192089 0.613400 -1.554494
        CHANNELS 3 Xrotation Yrotation Zrotation
        JOINT LeftArm
        {
          OFFSET 6.822346 -20.001605 -11.416031
          CHANNELS 3 Xrotation Yrotation Zrotation
          JOINT LeftForeArm
          {
            OFFSET -10.811707 -3.287858 -20.004664
            CHANNELS 3 Xrotation Yrotation Zrotation
            JOINT LeftHand
            {
              OFFSET -2.972239 -0.032078 -2.791873
              CHANNELS 3 Xrotation Yrotation Zrotation
              End Site
              {
                OFFSET -0.891672 -0.009623 -0.837562
              }
            }
          }
        }
      }
      JOINT RightShoulder
      {
        OFFSET -17.192089 -0.613400 1.554494
        CHANNELS 3 Xrotation Yrotation Zrotation
        JOINT RightArm
        {
          OFFSET -7.078612 -20.128798 -9.457155
          CHANNELS 3 Xrotation Yrotation Zrotation
          JOINT RightForeArm
          {
            OFFSET 6.068787 -1.370308 -22.325569
            CHANNELS 3 Xrotation Yrotation Zrotation
            JOINT RightHand
            {
              OFFSET 2.627653 0.279547 -3.282648
              CHANNELS 3 Xrotation Yrotation Zrotation
              End Site
              {
                OFFSET 0.788296 0.083864 -0.984794
              }
            }
          }
        }
      }
    }
  }
  JOINT LeftUpLeg
  {
    OFFSET 11.367086 0.027478 -2.758015
    CHANNELS 3 Xrotation Yrotation Zrotation
    JOINT LeftLeg
    {
      OFFSET 2.451199 -39.057141 -4.768226
      CHANNELS 3 Xrotation Yrotation Zrotation
      JOINT LeftFoot
      {
        OFFSET 10.058204 -39.973237 0.774249
        CHANNELS 3 Xrotation Yrotation Zrotation
        End Site
        {
          OFFSET 3.017461 -11.991971 0.232275
        }
      }
    }
  }
  JOINT RightUpLeg
  {
    OFFSET -11.367086 -0.027478 2.758015
    CHANNELS 3 Xrotation Yrotation Zrotation
    JOINT RightLeg
    {
      OFFSET -4.668361 -37.080477 -5.635053
      CHANNELS 3 Xrotation Yrotation Zrotation
      JOINT RightFoot
      {
        OFFSET -2.542494 -41.040053 5.594103
        CHANNELS 3 Xrotation Yrotation Zrotation
        End Site
        {
          OFFSET -0.762748 -12.312016 1.678231
        }
      }
    }
  }
}
MOTION
Frames: 19
Frame Time: 0.083333
6.360846 60.000000 18.258120 -2.444008 -0.518044 -2.995596 -11.271301 -0.357005 -3.533078 -11.124730 -0.476980 -3.957615 -2.941290 -16.539593 -15.414026 5.000000 0.000000 0.000000 27.492183 -17.076446 30.766261 24.391074 -6.332087 -2.499652 0.000000 0.000000 0.000000 0.000000 0.000000 0.000000 19.855172 -9.528988 2.325804 9.503021 -4.445086 0.462923 49.399050 -15.043531 -42.772950 0.000000 0.000000 0.000000 23.492033 -1.255102 8.173038 0.520035 0.277734 10.333493 0.000000 0.000000 0.000000 -17.746949 2.156368 -8.353185 -22.281853 1.082870 -0.505950 0.000000 0.000000 0.000000
4.930019 60.000000 19.197261 -2.954556 -0.782488 -4.441157 -11.779188 -0.516679 -5.001723 -10.708805 -0.631301 -5.373421 1.565003 -19.787074 -20.383830 5.000000 0.000000 0.000000 25.953268 -12.273298 22.808763 27.975285 -5.702110 -2.934605 0.000000 0.000000 0.000000 0.000000 0.000000 0.000000 20.316532 -14.205616 8.681896 6.161498 -5.478651 0.389895 81.445265 -24.802589 -70.520673 0.000000 0.000000 0.000000 28.780589 -1.389298 8.408453 0.003650 0.208241 10.244641 0.000000 0.000000 0.000000 -20.142571 2.275698 -8.078571 -28.827832 0.117230 -4.331422 0.000000 0.000000 0.000000
3.747599 60.000000 14.963378 -1.830934 -0.717199 -4.255290 -10.656319 -0.450845 -4.808728 -10.747330 -0.588880 -4.959027 0.655131 -20.781401 -20.969242 5.000000 0.000000 0.000000 5.461069 -1.867217 5.649665 34.039037 -4.127469 -3.760059 0.000000 0.000000 0.000000 0.000000 0.000000 0.000000 12.385127 -12.433741 11.753806 8.218318 -5.308465 0.404683 0.000000 0.000000 0.000000 0.000000 0.000000 0.000000 23.834815 -1.097437 7.713143 -2.020477 -0.027467 12.290458 0.000000 0.000000 0.000000 -18.585362 2.175556 -9.615930 -28.652447 0.662227 -2.884753 0.000000 0.000000 0.000000
2.581564 60.000000 8.651485 -0.081919 -0.582312 -3.656926 -8.908756 -0.339160 -4.196741 -9.872658 -0.389304 -3.414662 -0.462871 -12.458542 -12.441952 5.000000 0.000000 0.000000 1.874017 5.289769 -7.625477 24.569883 -4.344304 -2.630321 0.000000 0.000000 0.000000 0.000000 0.000000 0.000000 7.764084 -6.297241 5.342894 7.588979 -2.724409 0.433661 0.000000 0.000000 0.000000 0.000000 0.000000 0.000000 12.822153 -0.840722 6.706723 -5.785141 -0.523489 13.457889 0.000000 0.000000 0.000000 -18.896513 2.147104 -12.640526 -25.233691 1.724249 0.265620 0.000000 0.000000 0.000000
1.711049 60.000000 3.909007 2.948123 -0.322663 -2.119991 -5.881318 -0.158626 -2.637245 -8.165573 -0.070670 -0.539109 -2.013173 0.189126 0.579649 5.000000 0.000000 0.000000 2.161892 5.500052 -7.810414 19.484395 -1.247157 -2.002327 -12.466164 3.345775 -9.642838 0.000000 0.000000 0.000000 1.898398 0.147144 -1.673741 9.871862 0.519648 0.561097 0.000000 0.000000 0.000000 0.000000 0.000000 0.000000 4.264393 -0.320671 3.258011 -6.455503 -0.643006 13.420450 0.000000 0.000000 0.000000 -21.330187 2.242076 -11.908404 -20.443623 1.691454 1.156198 0.000000 0.000000 0.000000
2.164120 60.000000 3.211013 4.797937 0.083146 1.192624 -4.035200 0.014981 0.700312 -7.081401 0.273078 3.696837 -0.748926 8.766827 9.232294 5.000000 0.000000 0.000000 4.548146 4.278535 -4.486860 23.451911 0.145633 -2.460147 -43.506278 17.312095 -52.740456 0.000000 0.000000 0.000000 -2.763693 1.231644 -0.339415 12.401206 2.152166 0.740428 0.000000 0.000000 0.000000 0.000000 0.000000 0.000000 1.216001 0.416545 -2.952051 -2.242642 0.071137 16.979436 0.000000 0.000000 0.000000 -25.129200 2.401832 -9.765454 -15.054942 1.343118 1.445793 0.000000 0.000000 0.000000
3.084404 60.000000 4.385714 5.424934 0.407265 4.263119 -3.410986 0.109652 3.785195 -6.426453 0.473932 6.794696 2.449150 13.801292 14.621705 5.000000 0.000000 0.000000 11.593012 3.084850 1.668155 27.555756 1.833409 -2.877138 -24.154088 37.366818 -123.585929 0.000000 0.000000 0.000000 -7.691342 0.783151 4.762380 10.947301 3.539440 0.687036 0.000000 0.000000 0.000000 0.000000 0.000000 0.000000 -2.065010 0.426268 -5.345599 -0.179221 0.365908 21.090789 0.000000 0.000000 0.000000 -23.325206 2.418099 -8.600419 -12.711097 1.317569 2.018304 0.000000 0.000000 0.000000
2.495143 60.000000 4.770275 5.237523 0.481351 4.851784 -3.598984 0.135730 4.378195 -6.482392 0.527598 7.499745 3.548997 15.364695 16.460128 5.000000 0.000000 0.000000 17.420421 5.598867 1.209815 27.370475 3.637290 -2.846207 147.602496 27.247149 -113.622246 0.000000 0.000000 0.000000 -9.019121 0.631275 6.349685 11.789141 3.622251 0.758100 10.428583 -3.207756 7.432007 0.000000 0.000000 0.000000 -1.915991 0.294629 -3.986700 3.083607 0.593750 22.265369 0.000000 0.000000 0.000000 -24.729725 2.584079 -7.455976 -11.270711 0.956660 1.040375 0.000000 0.000000 0.000000
0.686243 60.000000 8.894072 2.913490 0.513329 4.282214 -5.923137 0.181557 3.817350 -7.896337 0.502006 6.095080 2.807819 11.225523 12.150186 5.000000 0.000000 0.000000 14.778910 5.011676 0.618126 23.967455 3.389489 -2.558499 92.740843 16.691595 -71.302220 0.000000 0.000000 0.000000 -5.330276 -1.171827 7.148758 11.141425 3.184585 0.720880 46.737669 -14.376163 33.307943 0.000000 0.000000 0.000000 -0.277959 -0.234399 1.066281 6.125992 0.797439 19.379910 0.000000 0.000000 0.000000 -27.926092 2.883189 -5.952612 -12.311375 0.603478 -0.578944 0.000000 0.000000 0.000000
-0.307804 60.000000 16.485582 0.875549 0.268486 2.326839 -7.958931 0.061514 1.847331 -9.559120 0.174118 2.594075 -0.843172 0.179120 1.230563 5.000000 0.000000 0.000000 7.245546 2.762215 -0.755077 18.273323 1.485079 -2.038254 0.000000 0.000000 0.000000 0.000000 0.000000 0.000000 -1.936726 -0.489068 2.832305 5.969386 1.052490 0.509129 77.057388 -23.702286 54.915514 0.000000 0.000000 0.000000 5.988078 -1.228206 8.156012 4.517696 0.829812 14.599768 0.000000 0.000000 0.000000 -27.516598 2.941305 -5.119385 -16.375437 -0.049318 -3.209991 0.000000 0.000000 0.000000
-1.647584 60.000000 26.723478 -2.450363 -0.298319 -1.844109 -11.279706 -0.225959 -2.361266 -12.228930 -0.448727 -3.333926 -4.484051 -16.564120 -15.021702 5.000000 0.000000 0.000000 0.567274 4.888143 -7.777160 22.614162 -2.608585 -2.397241 0.000000 0.000000 0.000000 0.000000 0.000000 0.000000 3.839857 -0.775152 -3.626452 -2.873189 -4.171467 0.315312 11.978268 -2.814194 -8.517924 0.000000 0.000000 0.000000 19.402827 -2.142167 11.078823 4.402577 0.826662 11.316155 0.000000 0.000000 0.000000 -28.348305 3.114382 -3.966697 -24.897563 -1.861318 -8.762024 0.000000 0.000000 0.000000
-3.001787 60.000000 33.742923 -1.632841 -0.877560 -5.686265 -10.456588 -0.497294 -6.246366 -11.398504 -0.963689 -7.897855 0.384307 -25.913472 -25.757211 5.000000 0.000000 0.000000 4.406610 7.814142 -9.721681 33.754839 -4.427340 -3.787363 0.000000 0.000000 0.000000 0.000000 0.000000 0.000000 14.340002 -18.329395 13.214539 -0.166217 -9.829547 0.529056 53.682873 -12.612345 -38.174686 0.000000 0.000000 0.000000 26.534806 -2.883514 12.555249 0.837843 0.303310 8.794328 0.000000 0.000000 0.000000 -25.422944 2.861084 -4.124845 -32.251729 -4.475409 -14.732545 0.000000 0.000000 0.000000
-1.961476 60.000000 33.870952 1.928685 -1.312972 -9.413005 -6.890825 -0.596819 -9.996608 -8.873715 -0.907269 -9.341668 2.536304 -25.050098 -26.158615 5.000000 0.000000 0.000000 6.753973 8.219203 -8.599838 39.286571 -5.280453 -4.541138 0.000000 0.000000 0.000000 0.000000 0.000000 0.000000 19.908199 -44.990775 43.881195 15.728143 -10.413236 0.106667 88.508094 -20.794241 -62.939416 0.000000 0.000000 0.000000 24.507004 -2.619791 12.025129 0.507839 0.229023 6.844280 0.000000 0.000000 0.000000 -20.212228 2.363946 -5.129902 -32.657650 -5.503495 -16.967260 0.000000 0.000000 0.000000
1.920813 60.000000 24.166027 2.636704 -1.294207 -9.633760 -6.183120 -0.551481 -10.211301 -8.336981 -0.828450 -9.050406 1.040629 -23.067461 -23.465736 5.000000 0.000000 0.000000 6.336537 8.018731 -8.557893 32.867651 -4.979783 -3.648845 0.000000 0.000000 0.000000 0.000000 0.000000 0.000000 22.514978 -35.357528 30.511469 19.973353 -5.885133 0.266748 0.000000 0.000000 0.000000 0.000000 0.000000 0.000000 16.968159 -1.965894 11.024293 0.415432 0.185040 6.034714 0.000000 0.000000 0.000000 -18.273530 2.218126 -6.535338 -24.290588 -3.325067 -12.857671 0.000000 0.000000 0.000000
5.283338 60.000000 12.406824 3.142433 -1.032692 -7.648505 -5.680060 -0.437901 -8.208423 -7.941532 -0.601042 -6.652693 -2.070657 -16.393690 -15.727858 5.000000 0.000000 0.000000 3.223648 4.807221 -5.940905 22.826183 -4.985753 -2.329546 0.000000 0.000000 0.000000 0.000000 0.000000 0.000000 17.639067 -17.907254 13.403673 14.353069 -1.394700 0.689449 0.000000 0.000000 0.000000 0.000000 0.000000 0.000000 13.502441 -1.504032 9.583753 -4.311518 -0.700469 6.418564 0.000000 0.000000 0.000000 -15.041997 2.064750 -7.982979 -17.960587 -0.261259 -2.874072 0.000000 0.000000 0.000000
8.395340 60.000000 4.233851 6.544765 -0.596681 -5.256472 -2.282399 -0.143156 -5.773111 -6.248323 -0.270808 -3.513791 -5.297663 -4.348130 -3.242863 5.000000 0.000000 0.000000 4.159525 2.411159 -1.523160 21.123007 -3.477267 -2.159640 0.000000 0.000000 0.000000 0.000000 0.000000 0.000000 12.159004 1.711645 -10.122803 10.875959 -0.426377 0.585343 0.000000 0.000000 0.000000 0.000000 0.000000 0.000000 9.611469 -0.967912 7.291696 -5.853674 -0.794865 10.762120 0.000000 0.000000 0.000000 -12.310981 1.984943 -6.779521 -8.339638 2.036394 6.965535 0.000000 0.000000 0.000000
11.092587 60.000000 2.534222 8.678978 -0.240428 -2.197606 -0.151551 0.003743 -2.691549 -5.046951 0.051888 1.002730 -5.978768 6.611474 7.364791 5.000000 0.000000 0.000000 4.169709 3.029118 -2.464282 17.515669 -1.431516 -1.851192 0.000000 0.000000 0.000000 0.000000 0.000000 0.000000 -0.150003 2.944185 -5.756023 12.497626 1.094809 0.678918 0.000000 0.000000 0.000000 0.000000 0.000000 0.000000 5.352651 -0.433171 4.516506 -2.438041 0.078562 18.294044 0.000000 0.000000 0.000000 -20.126556 2.453802 -2.262379 -4.891171 1.214493 5.211961 0.000000 0.000000 0.000000
11.326974 60.000000 4.124539 7.870745 0.017316 0.915099 -0.961970 0.010519 0.421979 -5.327853 0.254269 4.380055 -4.571492 13.796796 14.082633 5.000000 0.000000 0.000000 5.009252 4.405795 -4.127318 12.835049 1.413575 -1.486954 0.000000 0.000000 0.000000 0.000000 0.000000 0.000000 -6.141851 1.825281 0.674146 8.031993 2.411520 0.442967 0.000000 0.000000 0.000000 0.000000 0.000000 0.000000 5.045230 -0.278407 3.638934 1.774339 0.506859 22.580916 0.000000 0.000000 0.000000 -23.924597 2.883951 -1.238724 -8.929034 1.196830 3.049053 0.000000 0.000000 0.000000
8.869173 60.000000 6.769645 5.914165 0.222008 2.582171 -2.920208 0.060956 2.097702 -7.144401 0.319459 4.368792 -7.970474 7.917492 8.524445 5.000000 0.000000 0.000000 3.145442 3.956309 -4.615312 12.932119 0.191120 -1.421077 0.000000 0.000000 0.000000 0.000000 0.000000 0.000000 -3.695443 0.123799 2.542495 8.298196 1.344407 0.449313 12.489596 -2.722204 -7.828593 0.000000 0.000000 0.000000 10.202476 -0.073504 3.298894 7.957242 0.865525 21.854696 0.000000 0.000000 0.000000 -25.172242 3.016711 -1.362034 -12.729695 1.111141 1.279323 0.000000 0.000000 0.000000
